HIERARCHY
ROOT root
{
	OFFSET 0.00 0.00 0.00
	CHANNELS 6 Xposition Yposition Zposition Zrotation Xrotation Yrotation
	JOINT lowerback
	{
		OFFSET 0 0 0
		CHANNELS 6 Xposition Yposition Zposition Zrotation Xrotation Yrotation
		JOINT upperback
		{
			OFFSET -0.214371 12.3768 -1.12219
			CHANNELS 6 Xposition Yposition Zposition Zrotation Xrotation Yrotation
			JOINT thorax
			{
				OFFSET -0.00137213 12.3873 0.296195
				CHANNELS 6 Xposition Yposition Zposition Zrotation Xrotation Yrotation
				JOINT lowerneck
				{
					OFFSET 0.0883157 12.5016 0.82912
					CHANNELS 6 Xposition Yposition Zposition Zrotation Xrotation Yrotation
					JOINT upperneck
					{
						OFFSET -1 10.1794 0.943522
						CHANNELS 6 Xposition Yposition Zposition Zrotation Xrotation Yrotation
						JOINT head
						{
							OFFSET 0.667525 10.2797 -1.57149
							CHANNELS 6 Xposition Yposition Zposition Zrotation Xrotation Yrotation
							End Site
							{
								OFFSET 0 0 0
							}
						}
					}
				}
				JOINT lclavicle
				{
					OFFSET 0.0883157 12.5016 0.82912
					CHANNELS 6 Xposition Yposition Zposition Zrotation Xrotation Yrotation
					JOINT lhumerus
					{
						OFFSET 20.61 4.45006 1.43784
						CHANNELS 6 Xposition Yposition Zposition Zrotation Xrotation Yrotation
						JOINT lradius
						{
							OFFSET 0 -30.3438 0
							CHANNELS 6 Xposition Yposition Zposition Zrotation Xrotation Yrotation
							JOINT lwrist
							{
								OFFSET 0 -18.964 0
								CHANNELS 6 Xposition Yposition Zposition Zrotation Xrotation Yrotation
								JOINT lhand
								{
									OFFSET 0 -9.48199 0
									CHANNELS 6 Xposition Yposition Zposition Zrotation Xrotation Yrotation
									JOINT lfingers
									{
										OFFSET 0 -3.17138 0
										CHANNELS 6 Xposition Yposition Zposition Zrotation Xrotation Yrotation
										End Site
										{
											OFFSET 0 -2.55685 0
										}
									}
								}
								JOINT lthumb
								{
									OFFSET 0 -9.48199 0
									CHANNELS 6 Xposition Yposition Zposition Zrotation Xrotation Yrotation
									End Site
									{
										OFFSET 0 -3.67114 0
									}
								}
							}
						}
					}
				}
				JOINT rclavicle
				{
					OFFSET 0.0883157 12.5016 0.82912
					CHANNELS 6 Xposition Yposition Zposition Zrotation Xrotation Yrotation
					JOINT rhumerus
					{
						OFFSET -20.61 4.45 1.44
						CHANNELS 6 Xposition Yposition Zposition Zrotation Xrotation Yrotation
						JOINT rradius
						{
							OFFSET 0 -29.5102 0
							CHANNELS 6 Xposition Yposition Zposition Zrotation Xrotation Yrotation
							JOINT rwrist
							{
								OFFSET 0 -19.2342 0
								CHANNELS 6 Xposition Yposition Zposition Zrotation Xrotation Yrotation
								JOINT rhand
								{
									OFFSET 0 -9.61712 0
									CHANNELS 6 Xposition Yposition Zposition Zrotation Xrotation Yrotation
									JOINT rfingers
									{
										OFFSET 0 -3.29215 0
										CHANNELS 6 Xposition Yposition Zposition Zrotation Xrotation Yrotation
										End Site
										{
											OFFSET 0 -2.557 0
										}
									}
								}
								JOINT rthumb
								{
									OFFSET 0 -9.61712 0
									CHANNELS 6 Xposition Yposition Zposition Zrotation Xrotation Yrotation
									End Site
									{
										OFFSET 0 -3.671 0
									}
								}
							}
						}
					}
				}
			}
		}
	}
	JOINT rfemur
	{
		OFFSET -8.46272 -9.62775 4.76248
		CHANNELS 6 Xposition Yposition Zposition Zrotation Xrotation Yrotation
		JOINT rtibia
		{
			OFFSET 1.00552e-005 -38.0331 0
			CHANNELS 6 Xposition Yposition Zposition Zrotation Xrotation Yrotation
			JOINT rfoot
			{
				OFFSET 1.14428e-005 -43.2815 0
				CHANNELS 6 Xposition Yposition Zposition Zrotation Xrotation Yrotation
				JOINT rtoes
				{
					OFFSET 0 -14.1868 -3.08763
					CHANNELS 6 Xposition Yposition Zposition Zrotation Xrotation Yrotation
					End Site
					{
						OFFSET 0 -7.27332 0
					}
				}
			}
		}
	}
	JOINT lfemur
	{
		OFFSET 9.10607 -9.62778 4.76249
		CHANNELS 6 Xposition Yposition Zposition Zrotation Xrotation Yrotation
		JOINT ltibia
		{
			OFFSET -1.01399e-005 -38.3535 0
			CHANNELS 6 Xposition Yposition Zposition Zrotation Xrotation Yrotation
			JOINT lfoot
			{
				OFFSET -1.12937e-005 -42.7176 0
				CHANNELS 6 Xposition Yposition Zposition Zrotation Xrotation Yrotation
				JOINT ltoes
				{
					OFFSET 0 -13.9965 -2.83857
					CHANNELS 6 Xposition Yposition Zposition Zrotation Xrotation Yrotation
					End Site
					{
						OFFSET 0 -7.16348 0
					}
				}
			}
		}
	}
}
MOTION
Frames: 5
Frame Time: 0.00833333
-13.2317	91.2775	78.9507	-3.17591	20.6253	-3.26988	0 0 0 4.06609	33.9243	-1.30576	-0.214371 12.3768 -1.12219 1.01467	8.89292	-0.178462	-0.00137213 12.3873 0.296195 -0.683532	-7.45804	-0.119074	0.0883157 12.5016 0.82912 1.80974	17.82	0.386579	-1 10.1794 0.943522 3.13808	-11.4008	1.44281	0.667525 10.2797 -1.57149 0.498258	-6.38758	0.348651	0.0883157 12.5016 0.82912 -15	0	-0	20.61 4.45006 1.43784 15.5546	20.9469	177.008	0 -30.3438 0 -0	67.6421	-0	0 -18.964 0 1.02901e-015	2.63598e-015	-85.0077	0 -9.48199 0 1.22245	4.37968	-2.58917e-014	0 -3.17138 0 -0	7.12502	-0	0 -9.48199 0 25	15	-1.36605e-015	0.0883157 12.5016 0.82912 15	0	-0	-20.61 4.45 1.44 -14.6945	12.9928	178.386	0 -29.5102 0 -0	69.2944	-0	0 -19.2342 0 9.01372e-016	-3.44047e-015	119.362	0 -9.61712 0 1.22	4.38	-0	0 -3.29215 0 -0	7.12502	-0	0 -9.61712 0 25	15	-7.97034e-015	-8.46272 -9.62775 4.76248 15.7999	-45.7963	9.83235	1.00552e-005 -38.0331 0 -0	59.657	-0	1.14428e-005 -43.2815 0 -82.0389	-74.839	-82.3124	0 -14.1868 -3.08763 -0	-23.4212	-0	9.10607 -9.62778 4.76249 3.42026	-59.8041	5.65455	-1.01399e-005 -38.3535 0 -0	33.0302	-0	-1.12937e-005 -42.7176 0 -5.73847	-60.2696	-6.60127	0 -13.9965 -2.83857 -0	-25.2003	-0
-13.2072	91.3125	79.2258	-3.08532	20.8006	-3.33213	0 0 0 4.0237	33.9959	-1.30669	-0.214371 12.3768 -1.12219 1.05074	8.81819	-0.185036	-0.00137213 12.3873 0.296195 -0.620562	-7.56459	-0.125008	0.0883157 12.5016 0.82912 1.80228	17.7837	0.392258	-1 10.1794 0.943522 3.08633	-11.4206	1.44032	0.667525 10.2797 -1.57149 0.483094	-6.38779	0.352089	0.0883157 12.5016 0.82912 -15	0	-0	20.61 4.45006 1.43784 15.5455	20.881	176.992	0 -30.3438 0 -0	67.2989	-0	0 -18.964 0 1.03134e-015	2.60912e-015	-85.0587	0 -9.48199 0 1.22245	4.37968	-2.58917e-014	0 -3.17138 0 -0	7.12502	-0	0 -9.48199 0 25	15	-1.36605e-015	0.0883157 12.5016 0.82912 15	0	-0	-20.61 4.45 1.44 -14.8126	12.7505	178.365	0 -29.5102 0 -0	68.8422	-0	0 -19.2342 0 9.05159e-016	-3.4472e-015	119.425	0 -9.61712 0 1.22	4.38	-0	0 -3.29215 0 -0	7.12502	-0	0 -9.61712 0 25	15	-7.97034e-015	-8.46272 -9.62775 4.76248 15.6547	-45.7313	9.77794	1.00552e-005 -38.0331 0 -0	59.5327	-0	1.14428e-005 -43.2815 0 -82.4124	-74.8547	-82.6728	0 -14.1868 -3.08763 -0	-23.3827	-0	9.10607 -9.62778 4.76249 3.13831	-59.9646	5.31199	-1.01399e-005 -38.3535 0 -0	33.2729	-0	-1.12937e-005 -42.7176 0 -5.61927	-60.1644	-6.47118	0 -13.9965 -2.83857 -0	-24.8743	-0
-13.1768	91.3548	79.499	-3.00851	20.99	-3.37773	0 0 0 3.99196	34.0657	-1.31168	-0.214371 12.3768 -1.12219 1.08925	8.74346	-0.191929	-0.00137213 12.3873 0.296195 -0.559493	-7.67063	-0.131196	0.0883157 12.5016 0.82912 1.796	17.7431	0.391309	-1 10.1794 0.943522 3.03722	-11.4386	1.43065	0.667525 10.2797 -1.57149 0.46971	-6.38795	0.351234	0.0883157 12.5016 0.82912 -15	0	-0	20.61 4.45006 1.43784 15.5454	20.7679	176.958	0 -30.3438 0 -0	66.9661	-0	0 -18.964 0 1.03404e-015	2.57768e-015	-85.1184	0 -9.48199 0 1.22245	4.37968	-2.58917e-014	0 -3.17138 0 -0	7.12502	-0	0 -9.48199 0 25	15	-1.36605e-015	0.0883157 12.5016 0.82912 15	0	-0	-20.61 4.45 1.44 -14.9028	12.4876	178.316	0 -29.5102 0 -0	68.412	-0	0 -19.2342 0 9.09978e-016	-3.45573e-015	119.505	0 -9.61712 0 1.22	4.38	-0	0 -3.29215 0 -0	7.12502	-0	0 -9.61712 0 25	15	-7.97034e-015	-8.46272 -9.62775 4.76248 15.5408	-45.662	9.75948	1.00552e-005 -38.0331 0 -0	59.3742	-0	1.14428e-005 -43.2815 0 -82.8084	-74.8437	-83.0558	0 -14.1868 -3.08763 -0	-23.3369	-0	9.10607 -9.62778 4.76249 2.85064	-60.1341	4.93376	-1.01399e-005 -38.3535 0 -0	33.5057	-0	-1.12937e-005 -42.7176 0 -5.47177	-60.1217	-6.30434	0 -13.9965 -2.83857 -0	-24.572	-0
-13.1355	91.4056	79.7714	-2.95106	21.1958	-3.41037	0 0 0 3.97722	34.1283	-1.32036	-0.214371 12.3768 -1.12219 1.12928	8.66944	-0.197755	-0.00137213 12.3873 0.296195 -0.505071	-7.77355	-0.136952	0.0883157 12.5016 0.82912 1.78906	17.699	0.388489	-1 10.1794 0.943522 2.98892	-11.4558	1.41599	0.667525 10.2797 -1.57149 0.457535	-6.38807	0.349161	0.0883157 12.5016 0.82912 -15	0	-0	20.61 4.45006 1.43784 15.5527	20.6174	176.915	0 -30.3438 0 -0	66.6567	-0	0 -18.964 0 1.03688e-015	2.54428e-015	-85.1818	0 -9.48199 0 1.22245	4.37968	-2.58917e-014	0 -3.17138 0 -0	7.12502	-0	0 -9.48199 0 25	15	-1.36605e-015	0.0883157 12.5016 0.82912 15	0	-0	-20.61 4.45 1.44 -14.9674	12.2137	178.25	0 -29.5102 0 -0	68.0162	-0	0 -19.2342 0 9.15716e-016	-3.46585e-015	119.6	0 -9.61712 0 1.22	4.38	-0	0 -3.29215 0 -0	7.12502	-0	0 -9.61712 0 25	15	-7.97034e-015	-8.46272 -9.62775 4.76248 15.4616	-45.5893	9.77411	1.00552e-005 -38.0331 0 -0	59.1802	-0	1.14428e-005 -43.2815 0 -83.201	-74.8151	-83.436	0 -14.1868 -3.08763 -0	-23.2922	-0	9.10607 -9.62778 4.76249 2.58434	-60.3118	4.55765	-1.01399e-005 -38.3535 0 -0	33.7243	-0	-1.12937e-005 -42.7176 0 -5.30619	-60.133	-6.11325	0 -13.9965 -2.83857 -0	-24.3094	-0
-13.0815	91.4671	80.0425	-2.91629	21.4175	-3.43356	0 0 0 3.98393	34.1803	-1.333	-0.214371 12.3768 -1.12219 1.16975	8.59702	-0.201721	-0.00137213 12.3873 0.296195 -0.460872	-7.87115	-0.14185	0.0883157 12.5016 0.82912 1.78182	17.6526	0.38296	-1 10.1794 0.943522 2.93995	-11.473	1.39862	0.667525 10.2797 -1.57149 0.445626	-6.38817	0.345296	0.0883157 12.5016 0.82912 -15	0	-0	20.61 4.45006 1.43784 15.5662	20.4398	176.867	0 -30.3438 0 -0	66.3825	-0	0 -18.964 0 1.03962e-015	2.51151e-015	-85.244	0 -9.48199 0 1.22245	4.37968	-2.58917e-014	0 -3.17138 0 -0	7.12502	-0	0 -9.48199 0 25	15	-1.36605e-015	0.0883157 12.5016 0.82912 15	0	-0	-20.61 4.45 1.44 -15.0103	11.9382	178.177	0 -29.5102 0 -0	67.6656	-0	0 -19.2342 0 9.22017e-016	-3.47691e-015	119.704	0 -9.61712 0 1.22	4.38	-0	0 -3.29215 0 -0	7.12502	-0	0 -9.61712 0 25	15	-7.97034e-015	-8.46272 -9.62775 4.76248 15.4166	-45.5138	9.81515	1.00552e-005 -38.0331 0 -0	58.9521	-0	1.14428e-005 -43.2815 0 -83.5647	-74.7794	-83.7884	0 -14.1868 -3.08763 -0	-23.2578	-0	9.10607 -9.62778 4.76249 2.3612	-60.4954	4.21649	-1.01399e-005 -38.3535 0 -0	33.9251	-0	-1.12937e-005 -42.7176 0 -5.13471	-60.1889	-5.91275	0 -13.9965 -2.83857 -0	-24.0967	-0
